<svg xmlns="http://www.w3.org/2000/svg" xmlns:xlink="http://www.w3.org/1999/xlink" x="0px" y="0px"
	 viewBox="0 0 40.6 40.4" enable-background="new 0 0 40.6 40.4" xml:space="preserve">
<path fill="none" stroke="#565656" stroke-width="2.5" stroke-linecap="round" stroke-linejoin="round" stroke-miterlimit="10" d="
	M20.4,2.6c0.3,0,4.1,0.5,7,3.7c7.7,8.4,1.7,16.6,6.2,21.8c2.1,2.4,5.8,5.5,5.8,5.5l-18.9,0h-0.2l-18.9,0c0,0,3.7-3.1,5.8-5.5
	c4.5-5.2-1.6-13.4,6.2-21.8c2.9-3.2,6.6-3.7,7-3.7"/>
<path fill="#565656" d="M24.1,36.6c0,2-1.6,3.7-3.7,3.7s-3.7-1.6-3.7-3.7"/>
<path fill="#565656" d="M18.2,2.1c0-1.2,0.9-2.1,2.1-2.1s2.1,0.9,2.1,2.1"/>
</svg>
